<svg width="430" height="442" viewBox="0 0 430 442" fill="none" xmlns="http://www.w3.org/2000/svg">
<circle cx="215" cy="193" r="174.56" fill="#F5F7F9" stroke="#EDEDED" stroke-width="0.879397"/>
<circle cx="215" cy="193" r="150.817" fill="#E5EAF7" fill-opacity="0.8" stroke="#EDEDED" stroke-width="0.879397"/>
<g filter="url(#filter0_f_30_104)">
<g filter="url(#filter1_f_30_104)">
<g filter="url(#filter2_i_30_104)">
<path d="M211.357 161.302H219.523L221.156 183.584H209.724L211.357 161.302Z" fill="url(#paint0_linear_30_104)"/>
</g>
<path d="M220.513 178.681L219.635 165.109C218.802 165.105 218.585 165.843 218.58 166.212C218.535 169.978 219.85 176.094 220.513 178.681Z" fill="white" fill-opacity="0.1"/>
<g clip-path="url(#clip0_30_104)">
<g filter="url(#filter3_i_30_104)">
<circle cx="215" cy="257.789" r="120.477" fill="url(#paint1_linear_30_104)"/>
</g>
<circle cx="234.786" cy="340.012" r="99.8116" fill="white" fill-opacity="0.025"/>
<g filter="url(#filter4_f_30_104)">
<ellipse cx="258.969" cy="235.804" rx="21.9849" ry="13.191" fill="white"/>
</g>
<g filter="url(#filter5_f_30_104)">
<ellipse cx="163.116" cy="346.608" rx="21.9849" ry="35.1759" fill="white" fill-opacity="0.3"/>
</g>
<g filter="url(#filter6_f_30_104)">
<path d="M300.031 226.939C279.047 200.936 248.084 200.626 235.226 203.722L296.945 278.015C306.717 271.824 321.016 252.941 300.031 226.939Z" fill="white" fill-opacity="0.1"/>
</g>
<path d="M119.585 343.97C119.291 327.994 106.742 340.712 99.3584 336.935L95.8408 394.095C148.605 412.709 240.765 444.133 187.298 420.917C133.831 397.701 119.878 359.945 119.585 343.97Z" fill="url(#paint2_linear_30_104)" fill-opacity="0.2"/>
<g filter="url(#filter8_f_30_104)">
<path d="M103.653 302.872C94.3857 235.375 151.232 205.759 160.706 204.243C170.18 202.726 174.165 211.35 161.435 217.783C113.429 245.364 108.062 282.015 103.653 302.872Z" fill="white" fill-opacity="0.1"/>
</g>
<ellipse cx="158.991" cy="348.352" rx="76.0678" ry="114.322" transform="rotate(-40.6438 158.991 348.352)" fill="white" fill-opacity="0.01"/>
<g filter="url(#filter9_f_30_104)">
<path d="M212.315 360.696C191.418 359.701 185.779 341.623 185.572 332.708V331.464H234.083L240.924 341.415C239.888 347.428 232.715 359.701 212.315 360.696Z" fill="white" fill-opacity="0.8"/>
<path d="M245.154 341.042C244.034 340.669 243.039 340.172 242.044 339.55C241.671 339.301 241.298 339.052 240.924 338.679C240.8 338.679 240.8 338.555 240.676 338.555C240.427 338.306 240.178 338.057 239.805 337.808C239.681 337.684 239.556 337.559 239.556 337.559C239.307 337.311 239.059 337.062 238.934 336.813C238.81 336.689 238.81 336.564 238.685 336.44C238.437 336.067 238.064 335.694 237.815 335.32C237.815 335.32 237.815 335.196 237.69 335.196C237.442 334.947 237.317 334.574 237.193 334.325C237.193 334.325 237.193 334.201 237.068 334.201C236.944 333.952 236.695 333.579 236.571 333.33V333.206C236.446 332.833 236.322 332.584 236.073 332.211C236.073 332.211 236.073 332.211 236.073 332.086C235.949 331.713 235.825 331.34 235.7 330.967C235.327 329.474 235.078 327.982 235.078 326.489C235.078 325.494 234.207 324.623 233.212 324.623C232.217 324.623 231.347 325.494 231.347 326.489C231.347 327.484 231.471 328.603 231.595 329.599H184.328C183.333 329.599 182.462 330.469 182.462 331.464C182.462 348.63 196.393 362.437 213.435 362.437C225.873 362.437 237.068 354.974 241.92 343.654C242.542 343.903 243.163 344.276 243.785 344.401C244.034 344.525 244.159 344.525 244.407 344.525C245.154 344.525 245.9 344.028 246.149 343.281C246.646 342.535 246.149 341.415 245.154 341.042ZM213.559 358.83C199.13 358.83 187.313 347.635 186.318 333.455H232.59C232.839 334.077 233.088 334.699 233.461 335.445C233.461 335.569 233.586 335.694 233.71 335.818C234.083 336.44 234.456 337.062 234.829 337.559C234.954 337.684 234.954 337.808 235.078 337.933C235.327 338.181 235.451 338.555 235.7 338.803C235.825 338.928 235.825 338.928 235.949 339.052C236.198 339.301 236.446 339.674 236.695 339.923L236.82 340.047C237.068 340.296 237.442 340.669 237.69 340.918C238.064 341.291 238.437 341.54 238.81 341.789C234.705 352.113 224.63 358.83 213.559 358.83Z" fill="white" fill-opacity="0.8"/>
</g>
<g filter="url(#filter10_f_30_104)">
<path d="M212.315 360.696C191.418 359.701 185.779 341.623 185.572 332.708V331.464H234.083L240.924 341.415C239.888 347.428 232.715 359.701 212.315 360.696Z" fill="white"/>
<path d="M245.154 341.042C244.034 340.669 243.039 340.172 242.044 339.55C241.671 339.301 241.298 339.052 240.924 338.679C240.8 338.679 240.8 338.555 240.676 338.555C240.427 338.306 240.178 338.057 239.805 337.808C239.681 337.684 239.556 337.559 239.556 337.559C239.307 337.311 239.059 337.062 238.934 336.813C238.81 336.689 238.81 336.564 238.685 336.44C238.437 336.067 238.064 335.694 237.815 335.32C237.815 335.32 237.815 335.196 237.69 335.196C237.442 334.947 237.317 334.574 237.193 334.325C237.193 334.325 237.193 334.201 237.068 334.201C236.944 333.952 236.695 333.579 236.571 333.33V333.206C236.446 332.833 236.322 332.584 236.073 332.211C236.073 332.211 236.073 332.211 236.073 332.086C235.949 331.713 235.825 331.34 235.7 330.967C235.327 329.474 235.078 327.982 235.078 326.489C235.078 325.494 234.207 324.623 233.212 324.623C232.217 324.623 231.347 325.494 231.347 326.489C231.347 327.484 231.471 328.603 231.595 329.599H184.328C183.333 329.599 182.462 330.469 182.462 331.464C182.462 348.63 196.393 362.437 213.435 362.437C225.873 362.437 237.068 354.974 241.92 343.654C242.542 343.903 243.163 344.276 243.785 344.401C244.034 344.525 244.159 344.525 244.407 344.525C245.154 344.525 245.9 344.028 246.149 343.281C246.646 342.535 246.149 341.415 245.154 341.042ZM213.559 358.83C199.13 358.83 187.313 347.635 186.318 333.455H232.59C232.839 334.077 233.088 334.699 233.461 335.445C233.461 335.569 233.586 335.694 233.71 335.818C234.083 336.44 234.456 337.062 234.829 337.559C234.954 337.684 234.954 337.808 235.078 337.933C235.327 338.181 235.451 338.555 235.7 338.803C235.825 338.928 235.825 338.928 235.949 339.052C236.198 339.301 236.446 339.674 236.695 339.923L236.82 340.047C237.068 340.296 237.442 340.669 237.69 340.918C238.064 341.291 238.437 341.54 238.81 341.789C234.705 352.113 224.63 358.83 213.559 358.83Z" fill="white"/>
</g>
<g filter="url(#filter11_f_30_104)">
<path d="M157.839 270.98C157.839 267.094 160.989 263.945 164.874 263.945H193.015C196.9 263.945 200.05 267.094 200.05 270.98V299.12C200.05 303.006 196.9 306.156 193.015 306.156H164.874C160.989 306.156 157.839 303.006 157.839 299.12V270.98Z" fill="#E5EAF7" fill-opacity="0.8"/>
</g>
<g filter="url(#filter12_f_30_104)">
<path d="M157.839 270.98C157.839 267.094 160.989 263.945 164.874 263.945H193.015C196.9 263.945 200.05 267.094 200.05 270.98V299.12C200.05 303.006 196.9 306.156 193.015 306.156H164.874C160.989 306.156 157.839 303.006 157.839 299.12V270.98Z" fill="#E5EAF7"/>
</g>
<g filter="url(#filter13_f_30_104)">
<path d="M230.829 299.56C230.829 295.918 233.782 292.965 237.425 292.965H266.445C270.087 292.965 273.04 295.918 273.04 299.56C273.04 303.203 270.087 306.156 266.445 306.156H237.425C233.782 306.156 230.829 303.203 230.829 299.56Z" fill="#E5EAF7" fill-opacity="0.8"/>
</g>
<g filter="url(#filter14_f_30_104)">
<path d="M230.829 299.56C230.829 295.918 233.782 292.965 237.425 292.965H266.445C270.087 292.965 273.04 295.918 273.04 299.56C273.04 303.203 270.087 306.156 266.445 306.156H237.425C233.782 306.156 230.829 303.203 230.829 299.56Z" fill="#E5EAF7"/>
</g>
</g>
<g clip-path="url(#clip1_30_104)">
<g filter="url(#filter15_i_30_104)">
<circle cx="215" cy="157.824" r="19.3467" fill="url(#paint3_linear_30_104)"/>
</g>
<g filter="url(#filter16_f_30_104)">
<circle cx="217.731" cy="154.399" r="18.0926" transform="rotate(23.6838 217.731 154.399)" fill="white" fill-opacity="0.05"/>
</g>
<circle cx="218.517" cy="163.98" r="14.9497" fill="white" fill-opacity="0.02"/>
<ellipse cx="221.291" cy="141.743" rx="2.63819" ry="0.879397" transform="rotate(19.3594 221.291 141.743)" fill="white" fill-opacity="0.15"/>
</g>
</g>
</g>
<g filter="url(#filter17_i_30_104)">
<path d="M208.216 37.3467H222.663L225.552 73.402H205.326L208.216 37.3467Z" fill="url(#paint4_linear_30_104)"/>
</g>
<path d="M224.588 65.4694L223.526 43.5075C222.518 43.5013 222.255 44.6945 222.249 45.2919C222.195 51.3853 223.786 61.2825 224.588 65.4694Z" fill="white" fill-opacity="0.1"/>
<g clip-path="url(#clip2_30_104)">
<g filter="url(#filter18_i_30_104)">
<circle cx="215" cy="193" r="120.477" fill="url(#paint5_linear_30_104)"/>
</g>
<circle cx="234.786" cy="229.495" r="99.8116" fill="white" fill-opacity="0.025"/>
<g filter="url(#filter19_f_30_104)">
<ellipse cx="258.969" cy="125.286" rx="21.9849" ry="13.191" fill="white"/>
</g>
<g filter="url(#filter20_f_30_104)">
<ellipse cx="163.116" cy="236.09" rx="21.9849" ry="35.1759" fill="white" fill-opacity="0.3"/>
</g>
<g filter="url(#filter21_f_30_104)">
<path d="M300.031 116.421C279.047 90.4181 248.084 90.1085 235.226 93.2041L296.945 167.497C306.717 161.306 321.016 142.424 300.031 116.421Z" fill="white" fill-opacity="0.1"/>
</g>
<g filter="url(#filter22_f_30_104)">
<path d="M119.585 233.452C119.291 217.476 106.742 230.195 99.3584 226.417L95.8408 283.578C148.605 302.192 240.765 333.615 187.298 310.399C133.831 287.183 119.878 249.428 119.585 233.452Z" fill="url(#paint6_linear_30_104)" fill-opacity="0.2"/>
</g>
<g filter="url(#filter23_f_30_104)">
<path d="M103.653 192.355C94.3857 124.857 151.232 95.241 160.706 93.725C170.18 92.2089 174.165 100.832 161.435 107.265C113.429 134.846 108.062 171.497 103.653 192.355Z" fill="white" fill-opacity="0.1"/>
</g>
<ellipse cx="158.991" cy="237.834" rx="76.0678" ry="114.322" transform="rotate(-40.6438 158.991 237.834)" fill="white" fill-opacity="0.01"/>
<g filter="url(#filter24_f_30_104)">
<path d="M212.315 250.178C191.418 249.183 185.779 231.105 185.572 222.191V220.947H234.083L240.924 230.898C239.888 236.91 232.715 249.183 212.315 250.178Z" fill="white" fill-opacity="0.8"/>
<path d="M245.154 230.525C244.034 230.152 243.039 229.654 242.044 229.032C241.671 228.783 241.298 228.535 240.924 228.161C240.8 228.161 240.8 228.037 240.676 228.037C240.427 227.788 240.178 227.539 239.805 227.291C239.681 227.166 239.556 227.042 239.556 227.042C239.307 226.793 239.059 226.544 238.934 226.296C238.81 226.171 238.81 226.047 238.685 225.922C238.437 225.549 238.064 225.176 237.815 224.803C237.815 224.803 237.815 224.678 237.69 224.678C237.442 224.43 237.317 224.057 237.193 223.808C237.193 223.808 237.193 223.683 237.068 223.683C236.944 223.435 236.695 223.061 236.571 222.813V222.688C236.446 222.315 236.322 222.066 236.073 221.693C236.073 221.693 236.073 221.693 236.073 221.569C235.949 221.196 235.825 220.822 235.7 220.449C235.327 218.957 235.078 217.464 235.078 215.971C235.078 214.976 234.207 214.105 233.212 214.105C232.217 214.105 231.347 214.976 231.347 215.971C231.347 216.966 231.471 218.086 231.595 219.081H184.328C183.333 219.081 182.462 219.952 182.462 220.947C182.462 238.112 196.393 251.92 213.435 251.92C225.873 251.92 237.068 244.456 241.92 233.137C242.542 233.386 243.163 233.759 243.785 233.883C244.034 234.008 244.159 234.008 244.407 234.008C245.154 234.008 245.9 233.51 246.149 232.764C246.646 232.017 246.149 230.898 245.154 230.525ZM213.559 248.312C199.13 248.312 187.313 237.117 186.318 222.937H232.59C232.839 223.559 233.088 224.181 233.461 224.927C233.461 225.052 233.586 225.176 233.71 225.3C234.083 225.922 234.456 226.544 234.829 227.042C234.954 227.166 234.954 227.291 235.078 227.415C235.327 227.664 235.451 228.037 235.7 228.286C235.825 228.41 235.825 228.41 235.949 228.535C236.198 228.783 236.446 229.156 236.695 229.405L236.82 229.53C237.068 229.778 237.442 230.152 237.69 230.4C238.064 230.774 238.437 231.022 238.81 231.271C234.705 241.595 224.63 248.312 213.559 248.312Z" fill="white" fill-opacity="0.8"/>
</g>
<g filter="url(#filter25_f_30_104)">
<path d="M212.315 250.178C191.418 249.183 185.779 231.105 185.572 222.191V220.947H234.083L240.924 230.898C239.888 236.91 232.715 249.183 212.315 250.178Z" fill="white"/>
<path d="M245.154 230.525C244.034 230.152 243.039 229.654 242.044 229.032C241.671 228.783 241.298 228.535 240.924 228.161C240.8 228.161 240.8 228.037 240.676 228.037C240.427 227.788 240.178 227.539 239.805 227.291C239.681 227.166 239.556 227.042 239.556 227.042C239.307 226.793 239.059 226.544 238.934 226.296C238.81 226.171 238.81 226.047 238.685 225.922C238.437 225.549 238.064 225.176 237.815 224.803C237.815 224.803 237.815 224.678 237.69 224.678C237.442 224.43 237.317 224.057 237.193 223.808C237.193 223.808 237.193 223.683 237.068 223.683C236.944 223.435 236.695 223.061 236.571 222.813V222.688C236.446 222.315 236.322 222.066 236.073 221.693C236.073 221.693 236.073 221.693 236.073 221.569C235.949 221.196 235.825 220.822 235.7 220.449C235.327 218.957 235.078 217.464 235.078 215.971C235.078 214.976 234.207 214.105 233.212 214.105C232.217 214.105 231.347 214.976 231.347 215.971C231.347 216.966 231.471 218.086 231.595 219.081H184.328C183.333 219.081 182.462 219.952 182.462 220.947C182.462 238.112 196.393 251.92 213.435 251.92C225.873 251.92 237.068 244.456 241.92 233.137C242.542 233.386 243.163 233.759 243.785 233.883C244.034 234.008 244.159 234.008 244.407 234.008C245.154 234.008 245.9 233.51 246.149 232.764C246.646 232.017 246.149 230.898 245.154 230.525ZM213.559 248.312C199.13 248.312 187.313 237.117 186.318 222.937H232.59C232.839 223.559 233.088 224.181 233.461 224.927C233.461 225.052 233.586 225.176 233.71 225.3C234.083 225.922 234.456 226.544 234.829 227.042C234.954 227.166 234.954 227.291 235.078 227.415C235.327 227.664 235.451 228.037 235.7 228.286C235.825 228.41 235.825 228.41 235.949 228.535C236.198 228.783 236.446 229.156 236.695 229.405L236.82 229.53C237.068 229.778 237.442 230.152 237.69 230.4C238.064 230.774 238.437 231.022 238.81 231.271C234.705 241.595 224.63 248.312 213.559 248.312Z" fill="white"/>
</g>
<g filter="url(#filter26_f_30_104)">
<path d="M157.839 160.462C157.839 156.577 160.989 153.427 164.874 153.427H193.015C196.9 153.427 200.05 156.577 200.05 160.462V188.603C200.05 192.488 196.9 195.638 193.015 195.638H164.874C160.989 195.638 157.839 192.488 157.839 188.603V160.462Z" fill="#E5EAF7" fill-opacity="0.8"/>
</g>
<g filter="url(#filter27_f_30_104)">
<path d="M157.839 160.462C157.839 156.577 160.989 153.427 164.874 153.427H193.015C196.9 153.427 200.05 156.577 200.05 160.462V188.603C200.05 192.488 196.9 195.638 193.015 195.638H164.874C160.989 195.638 157.839 192.488 157.839 188.603V160.462Z" fill="#E5EAF7"/>
</g>
<g filter="url(#filter28_f_30_104)">
<path d="M230.829 189.043C230.829 185.4 233.782 182.447 237.425 182.447H266.445C270.087 182.447 273.04 185.4 273.04 189.043C273.04 192.685 270.087 195.638 266.445 195.638H237.425C233.782 195.638 230.829 192.685 230.829 189.043Z" fill="#E5EAF7" fill-opacity="0.8"/>
</g>
<g filter="url(#filter29_f_30_104)">
<rect x="230.829" y="182.447" width="42.2111" height="13.191" rx="6.59548" fill="#E5EAF7"/>
</g>
</g>
<g clip-path="url(#clip3_30_104)">
<g filter="url(#filter30_i_30_104)">
<circle cx="215" cy="19.7586" r="19.3467" fill="url(#paint7_linear_30_104)"/>
</g>
<g filter="url(#filter31_f_30_104)">
<circle cx="217.731" cy="16.3336" r="18.0926" transform="rotate(23.6838 217.731 16.3336)" fill="white" fill-opacity="0.05"/>
</g>
<circle cx="218.517" cy="25.9146" r="14.9497" fill="white" fill-opacity="0.02"/>
<ellipse cx="221.291" cy="3.67736" rx="2.63819" ry="0.879397" transform="rotate(19.3594 221.291 3.67736)" fill="white" fill-opacity="0.15"/>
</g>
<defs>
<filter id="filter0_f_30_104" x="14.5225" y="58.4773" width="400.955" height="353.467" filterUnits="userSpaceOnUse" color-interpolation-filters="sRGB">
<feFlood flood-opacity="0" result="BackgroundImageFix"/>
<feBlend mode="normal" in="SourceGraphic" in2="BackgroundImageFix" result="shape"/>
<feGaussianBlur stdDeviation="40" result="effect1_foregroundBlur_30_104"/>
</filter>
<filter id="filter1_f_30_104" x="-15.4022" y="28.5527" width="460.804" height="413.317" filterUnits="userSpaceOnUse" color-interpolation-filters="sRGB">
<feFlood flood-opacity="0" result="BackgroundImageFix"/>
<feBlend mode="normal" in="SourceGraphic" in2="BackgroundImageFix" result="shape"/>
<feGaussianBlur stdDeviation="54.9623" result="effect1_foregroundBlur_30_104"/>
</filter>
<filter id="filter2_i_30_104" x="209.724" y="161.302" width="11.4326" height="22.2812" filterUnits="userSpaceOnUse" color-interpolation-filters="sRGB">
<feFlood flood-opacity="0" result="BackgroundImageFix"/>
<feBlend mode="normal" in="SourceGraphic" in2="BackgroundImageFix" result="shape"/>
<feColorMatrix in="SourceAlpha" type="matrix" values="0 0 0 0 0 0 0 0 0 0 0 0 0 0 0 0 0 0 127 0" result="hardAlpha"/>
<feOffset/>
<feGaussianBlur stdDeviation="4.92462"/>
<feComposite in2="hardAlpha" operator="arithmetic" k2="-1" k3="1"/>
<feColorMatrix type="matrix" values="0 0 0 0 0 0 0 0 0 0 0 0 0 0 0 0 0 0 0.25 0"/>
<feBlend mode="normal" in2="shape" result="effect1_innerShadow_30_104"/>
</filter>
<filter id="filter3_i_30_104" x="94.5225" y="116.206" width="255.025" height="262.06" filterUnits="userSpaceOnUse" color-interpolation-filters="sRGB">
<feFlood flood-opacity="0" result="BackgroundImageFix"/>
<feBlend mode="normal" in="SourceGraphic" in2="BackgroundImageFix" result="shape"/>
<feColorMatrix in="SourceAlpha" type="matrix" values="0 0 0 0 0 0 0 0 0 0 0 0 0 0 0 0 0 0 127 0" result="hardAlpha"/>
<feOffset dx="14.0704" dy="-21.1055"/>
<feGaussianBlur stdDeviation="17.6319"/>
<feComposite in2="hardAlpha" operator="arithmetic" k2="-1" k3="1"/>
<feColorMatrix type="matrix" values="0 0 0 0 0 0 0 0 0 0 0 0 0 0 0 0 0 0 0.2 0"/>
<feBlend mode="normal" in2="shape" result="effect1_innerShadow_30_104"/>
</filter>
<filter id="filter4_f_30_104" x="149.045" y="134.673" width="219.849" height="202.261" filterUnits="userSpaceOnUse" color-interpolation-filters="sRGB">
<feFlood flood-opacity="0" result="BackgroundImageFix"/>
<feBlend mode="normal" in="SourceGraphic" in2="BackgroundImageFix" result="shape"/>
<feGaussianBlur stdDeviation="43.9698" result="effect1_foregroundBlur_30_104"/>
</filter>
<filter id="filter5_f_30_104" x="53.1912" y="223.492" width="219.849" height="246.231" filterUnits="userSpaceOnUse" color-interpolation-filters="sRGB">
<feFlood flood-opacity="0" result="BackgroundImageFix"/>
<feBlend mode="normal" in="SourceGraphic" in2="BackgroundImageFix" result="shape"/>
<feGaussianBlur stdDeviation="43.9698" result="effect1_foregroundBlur_30_104"/>
</filter>
<filter id="filter6_f_30_104" x="234.346" y="201.508" width="77.3867" height="77.387" filterUnits="userSpaceOnUse" color-interpolation-filters="sRGB">
<feFlood flood-opacity="0" result="BackgroundImageFix"/>
<feBlend mode="normal" in="SourceGraphic" in2="BackgroundImageFix" result="shape"/>
<feGaussianBlur stdDeviation="0.439698" result="effect1_foregroundBlur_30_104"/>
</filter>
<filter id="filter8_f_30_104" x="101.756" y="203.187" width="68.6123" height="100.564" filterUnits="userSpaceOnUse" color-interpolation-filters="sRGB">
<feFlood flood-opacity="0" result="BackgroundImageFix"/>
<feBlend mode="normal" in="SourceGraphic" in2="BackgroundImageFix" result="shape"/>
<feGaussianBlur stdDeviation="0.439698" result="effect1_foregroundBlur_30_104"/>
</filter>
<filter id="filter9_f_30_104" x="164.874" y="307.035" width="99.0577" height="72.9898" filterUnits="userSpaceOnUse" color-interpolation-filters="sRGB">
<feFlood flood-opacity="0" result="BackgroundImageFix"/>
<feBlend mode="normal" in="SourceGraphic" in2="BackgroundImageFix" result="shape"/>
<feGaussianBlur stdDeviation="8.79397" result="effect1_foregroundBlur_30_104"/>
</filter>
<filter id="filter10_f_30_104" x="182.022" y="324.183" width="64.7612" height="38.6934" filterUnits="userSpaceOnUse" color-interpolation-filters="sRGB">
<feFlood flood-opacity="0" result="BackgroundImageFix"/>
<feBlend mode="normal" in="SourceGraphic" in2="BackgroundImageFix" result="shape"/>
<feGaussianBlur stdDeviation="0.219849" result="effect1_foregroundBlur_30_104"/>
</filter>
<filter id="filter11_f_30_104" x="140.251" y="246.357" width="77.3868" height="77.3868" filterUnits="userSpaceOnUse" color-interpolation-filters="sRGB">
<feFlood flood-opacity="0" result="BackgroundImageFix"/>
<feBlend mode="normal" in="SourceGraphic" in2="BackgroundImageFix" result="shape"/>
<feGaussianBlur stdDeviation="8.79397" result="effect1_foregroundBlur_30_104"/>
</filter>
<filter id="filter12_f_30_104" x="157.399" y="263.505" width="43.0903" height="43.0903" filterUnits="userSpaceOnUse" color-interpolation-filters="sRGB">
<feFlood flood-opacity="0" result="BackgroundImageFix"/>
<feBlend mode="normal" in="SourceGraphic" in2="BackgroundImageFix" result="shape"/>
<feGaussianBlur stdDeviation="0.219849" result="effect1_foregroundBlur_30_104"/>
</filter>
<filter id="filter13_f_30_104" x="213.241" y="275.377" width="77.3868" height="48.3668" filterUnits="userSpaceOnUse" color-interpolation-filters="sRGB">
<feFlood flood-opacity="0" result="BackgroundImageFix"/>
<feBlend mode="normal" in="SourceGraphic" in2="BackgroundImageFix" result="shape"/>
<feGaussianBlur stdDeviation="8.79397" result="effect1_foregroundBlur_30_104"/>
</filter>
<filter id="filter14_f_30_104" x="230.389" y="292.525" width="43.0903" height="14.0703" filterUnits="userSpaceOnUse" color-interpolation-filters="sRGB">
<feFlood flood-opacity="0" result="BackgroundImageFix"/>
<feBlend mode="normal" in="SourceGraphic" in2="BackgroundImageFix" result="shape"/>
<feGaussianBlur stdDeviation="0.219849" result="effect1_foregroundBlur_30_104"/>
</filter>
<filter id="filter15_i_30_104" x="195.653" y="130.563" width="43.9697" height="46.6079" filterUnits="userSpaceOnUse" color-interpolation-filters="sRGB">
<feFlood flood-opacity="0" result="BackgroundImageFix"/>
<feBlend mode="normal" in="SourceGraphic" in2="BackgroundImageFix" result="shape"/>
<feColorMatrix in="SourceAlpha" type="matrix" values="0 0 0 0 0 0 0 0 0 0 0 0 0 0 0 0 0 0 127 0" result="hardAlpha"/>
<feOffset dx="5.27638" dy="-7.91457"/>
<feGaussianBlur stdDeviation="4.39699"/>
<feComposite in2="hardAlpha" operator="arithmetic" k2="-1" k3="1"/>
<feColorMatrix type="matrix" values="0 0 0 0 0 0 0 0 0 0 0 0 0 0 0 0 0 0 0.2 0"/>
<feBlend mode="normal" in2="shape" result="effect1_innerShadow_30_104"/>
</filter>
<filter id="filter16_f_30_104" x="199.282" y="135.95" width="36.8979" height="36.8976" filterUnits="userSpaceOnUse" color-interpolation-filters="sRGB">
<feFlood flood-opacity="0" result="BackgroundImageFix"/>
<feBlend mode="normal" in="SourceGraphic" in2="BackgroundImageFix" result="shape"/>
<feGaussianBlur stdDeviation="0.175879" result="effect1_foregroundBlur_30_104"/>
</filter>
<filter id="filter17_i_30_104" x="205.326" y="37.3467" width="20.2266" height="40.4522" filterUnits="userSpaceOnUse" color-interpolation-filters="sRGB">
<feFlood flood-opacity="0" result="BackgroundImageFix"/>
<feBlend mode="normal" in="SourceGraphic" in2="BackgroundImageFix" result="shape"/>
<feColorMatrix in="SourceAlpha" type="matrix" values="0 0 0 0 0 0 0 0 0 0 0 0 0 0 0 0 0 0 127 0" result="hardAlpha"/>
<feOffset dy="4.39699"/>
<feGaussianBlur stdDeviation="2.19849"/>
<feComposite in2="hardAlpha" operator="arithmetic" k2="-1" k3="1"/>
<feColorMatrix type="matrix" values="0 0 0 0 0 0 0 0 0 0 0 0 0 0 0 0 0 0 0.3 0"/>
<feBlend mode="normal" in2="shape" result="effect1_innerShadow_30_104"/>
</filter>
<filter id="filter18_i_30_104" x="94.5225" y="51.4169" width="255.025" height="262.06" filterUnits="userSpaceOnUse" color-interpolation-filters="sRGB">
<feFlood flood-opacity="0" result="BackgroundImageFix"/>
<feBlend mode="normal" in="SourceGraphic" in2="BackgroundImageFix" result="shape"/>
<feColorMatrix in="SourceAlpha" type="matrix" values="0 0 0 0 0 0 0 0 0 0 0 0 0 0 0 0 0 0 127 0" result="hardAlpha"/>
<feOffset dx="14.0704" dy="-21.1055"/>
<feGaussianBlur stdDeviation="17.6319"/>
<feComposite in2="hardAlpha" operator="arithmetic" k2="-1" k3="1"/>
<feColorMatrix type="matrix" values="0 0 0 0 0 0 0 0 0 0 0 0 0 0 0 0 0 0 0.2 0"/>
<feBlend mode="normal" in2="shape" result="effect1_innerShadow_30_104"/>
</filter>
<filter id="filter19_f_30_104" x="149.045" y="24.1558" width="219.849" height="202.261" filterUnits="userSpaceOnUse" color-interpolation-filters="sRGB">
<feFlood flood-opacity="0" result="BackgroundImageFix"/>
<feBlend mode="normal" in="SourceGraphic" in2="BackgroundImageFix" result="shape"/>
<feGaussianBlur stdDeviation="43.9698" result="effect1_foregroundBlur_30_104"/>
</filter>
<filter id="filter20_f_30_104" x="53.1912" y="112.975" width="219.849" height="246.231" filterUnits="userSpaceOnUse" color-interpolation-filters="sRGB">
<feFlood flood-opacity="0" result="BackgroundImageFix"/>
<feBlend mode="normal" in="SourceGraphic" in2="BackgroundImageFix" result="shape"/>
<feGaussianBlur stdDeviation="43.9698" result="effect1_foregroundBlur_30_104"/>
</filter>
<filter id="filter21_f_30_104" x="234.346" y="90.9897" width="77.3867" height="77.387" filterUnits="userSpaceOnUse" color-interpolation-filters="sRGB">
<feFlood flood-opacity="0" result="BackgroundImageFix"/>
<feBlend mode="normal" in="SourceGraphic" in2="BackgroundImageFix" result="shape"/>
<feGaussianBlur stdDeviation="0.439698" result="effect1_foregroundBlur_30_104"/>
</filter>
<filter id="filter22_f_30_104" x="94.9614" y="224.278" width="109.349" height="95.2217" filterUnits="userSpaceOnUse" color-interpolation-filters="sRGB">
<feFlood flood-opacity="0" result="BackgroundImageFix"/>
<feBlend mode="normal" in="SourceGraphic" in2="BackgroundImageFix" result="shape"/>
<feGaussianBlur stdDeviation="0.439698" result="effect1_foregroundBlur_30_104"/>
</filter>
<filter id="filter23_f_30_104" x="101.756" y="92.6699" width="68.6123" height="100.564" filterUnits="userSpaceOnUse" color-interpolation-filters="sRGB">
<feFlood flood-opacity="0" result="BackgroundImageFix"/>
<feBlend mode="normal" in="SourceGraphic" in2="BackgroundImageFix" result="shape"/>
<feGaussianBlur stdDeviation="0.439698" result="effect1_foregroundBlur_30_104"/>
</filter>
<filter id="filter24_f_30_104" x="164.874" y="196.518" width="99.0577" height="72.9898" filterUnits="userSpaceOnUse" color-interpolation-filters="sRGB">
<feFlood flood-opacity="0" result="BackgroundImageFix"/>
<feBlend mode="normal" in="SourceGraphic" in2="BackgroundImageFix" result="shape"/>
<feGaussianBlur stdDeviation="8.79397" result="effect1_foregroundBlur_30_104"/>
</filter>
<filter id="filter25_f_30_104" x="182.022" y="213.666" width="64.7612" height="38.6934" filterUnits="userSpaceOnUse" color-interpolation-filters="sRGB">
<feFlood flood-opacity="0" result="BackgroundImageFix"/>
<feBlend mode="normal" in="SourceGraphic" in2="BackgroundImageFix" result="shape"/>
<feGaussianBlur stdDeviation="0.219849" result="effect1_foregroundBlur_30_104"/>
</filter>
<filter id="filter26_f_30_104" x="140.251" y="135.839" width="77.3868" height="77.3868" filterUnits="userSpaceOnUse" color-interpolation-filters="sRGB">
<feFlood flood-opacity="0" result="BackgroundImageFix"/>
<feBlend mode="normal" in="SourceGraphic" in2="BackgroundImageFix" result="shape"/>
<feGaussianBlur stdDeviation="8.79397" result="effect1_foregroundBlur_30_104"/>
</filter>
<filter id="filter27_f_30_104" x="157.399" y="152.987" width="43.0903" height="43.0903" filterUnits="userSpaceOnUse" color-interpolation-filters="sRGB">
<feFlood flood-opacity="0" result="BackgroundImageFix"/>
<feBlend mode="normal" in="SourceGraphic" in2="BackgroundImageFix" result="shape"/>
<feGaussianBlur stdDeviation="0.219849" result="effect1_foregroundBlur_30_104"/>
</filter>
<filter id="filter28_f_30_104" x="213.241" y="164.859" width="77.3868" height="48.3668" filterUnits="userSpaceOnUse" color-interpolation-filters="sRGB">
<feFlood flood-opacity="0" result="BackgroundImageFix"/>
<feBlend mode="normal" in="SourceGraphic" in2="BackgroundImageFix" result="shape"/>
<feGaussianBlur stdDeviation="8.79397" result="effect1_foregroundBlur_30_104"/>
</filter>
<filter id="filter29_f_30_104" x="230.389" y="182.008" width="43.0903" height="14.0703" filterUnits="userSpaceOnUse" color-interpolation-filters="sRGB">
<feFlood flood-opacity="0" result="BackgroundImageFix"/>
<feBlend mode="normal" in="SourceGraphic" in2="BackgroundImageFix" result="shape"/>
<feGaussianBlur stdDeviation="0.219849" result="effect1_foregroundBlur_30_104"/>
</filter>
<filter id="filter30_i_30_104" x="195.653" y="-7.50271" width="43.9697" height="46.6079" filterUnits="userSpaceOnUse" color-interpolation-filters="sRGB">
<feFlood flood-opacity="0" result="BackgroundImageFix"/>
<feBlend mode="normal" in="SourceGraphic" in2="BackgroundImageFix" result="shape"/>
<feColorMatrix in="SourceAlpha" type="matrix" values="0 0 0 0 0 0 0 0 0 0 0 0 0 0 0 0 0 0 127 0" result="hardAlpha"/>
<feOffset dx="5.27638" dy="-7.91457"/>
<feGaussianBlur stdDeviation="4.39699"/>
<feComposite in2="hardAlpha" operator="arithmetic" k2="-1" k3="1"/>
<feColorMatrix type="matrix" values="0 0 0 0 0 0 0 0 0 0 0 0 0 0 0 0 0 0 0.2 0"/>
<feBlend mode="normal" in2="shape" result="effect1_innerShadow_30_104"/>
</filter>
<filter id="filter31_f_30_104" x="199.282" y="-2.11519" width="36.8979" height="36.8976" filterUnits="userSpaceOnUse" color-interpolation-filters="sRGB">
<feFlood flood-opacity="0" result="BackgroundImageFix"/>
<feBlend mode="normal" in="SourceGraphic" in2="BackgroundImageFix" result="shape"/>
<feGaussianBlur stdDeviation="0.175879" result="effect1_foregroundBlur_30_104"/>
</filter>
<linearGradient id="paint0_linear_30_104" x1="213.896" y1="183.584" x2="226.613" y2="171.809" gradientUnits="userSpaceOnUse">
<stop stop-color="#291C76"/>
<stop offset="1" stop-color="#EBB03E"/>
</linearGradient>
<linearGradient id="paint1_linear_30_104" x1="182.462" y1="378.266" x2="299.422" y2="167.211" gradientUnits="userSpaceOnUse">
<stop stop-color="#291C76"/>
<stop offset="1" stop-color="#EBB03E"/>
</linearGradient>
<linearGradient id="paint2_linear_30_104" x1="96.2805" y1="319.347" x2="171.469" y2="416.52" gradientUnits="userSpaceOnUse">
<stop stop-color="white" stop-opacity="0"/>
<stop offset="1" stop-color="white"/>
</linearGradient>
<linearGradient id="paint3_linear_30_104" x1="209.775" y1="177.171" x2="228.557" y2="143.279" gradientUnits="userSpaceOnUse">
<stop stop-color="#291C76"/>
<stop offset="1" stop-color="#EBB03E"/>
</linearGradient>
<linearGradient id="paint4_linear_30_104" x1="212.708" y1="73.402" x2="233.346" y2="52.51" gradientUnits="userSpaceOnUse">
<stop stop-color="#291C76"/>
<stop offset="1" stop-color="#2452D4"/>
</linearGradient>
<linearGradient id="paint5_linear_30_104" x1="182.462" y1="313.477" x2="299.422" y2="102.422" gradientUnits="userSpaceOnUse">
<stop stop-color="#291C76"/>
<stop offset="1" stop-color="#2452D4"/>
</linearGradient>
<linearGradient id="paint6_linear_30_104" x1="96.2805" y1="208.829" x2="171.469" y2="306.002" gradientUnits="userSpaceOnUse">
<stop stop-color="white" stop-opacity="0"/>
<stop offset="1" stop-color="white"/>
</linearGradient>
<linearGradient id="paint7_linear_30_104" x1="209.775" y1="39.1053" x2="228.557" y2="5.21324" gradientUnits="userSpaceOnUse">
<stop stop-color="#291C76"/>
<stop offset="1" stop-color="#2452D4"/>
</linearGradient>
<clipPath id="clip0_30_104">
<path d="M94.5225 257.492C94.5225 216.373 127.856 183.04 168.975 183.04H261.025C302.144 183.04 335.477 216.373 335.477 257.492C335.477 298.611 302.144 331.945 261.025 331.945H168.975C127.856 331.945 94.5225 298.611 94.5225 257.492Z" fill="white"/>
</clipPath>
<clipPath id="clip1_30_104">
<path d="M195.653 150.433C195.653 143.83 201.006 138.477 207.609 138.477H222.391C228.994 138.477 234.347 143.83 234.347 150.433C234.347 157.036 228.994 162.389 222.391 162.389H207.609C201.006 162.389 195.653 157.036 195.653 150.433Z" fill="white"/>
</clipPath>
<clipPath id="clip2_30_104">
<path d="M94.5225 193C94.5225 126.462 148.462 72.5225 215 72.5225C281.538 72.5225 335.477 126.462 335.477 193C335.477 259.538 281.538 313.477 215 313.477C148.462 313.477 94.5225 259.538 94.5225 193Z" fill="white"/>
</clipPath>
<clipPath id="clip3_30_104">
<path d="M195.653 19.7586C195.653 9.07369 204.315 0.411865 215 0.411865C225.685 0.411865 234.347 9.07369 234.347 19.7586C234.347 30.4435 225.685 39.1053 215 39.1053C204.315 39.1053 195.653 30.4435 195.653 19.7586Z" fill="white"/>
</clipPath>
</defs>
</svg>
